<?xml version="1.0" encoding="utf-8"?>
<svg version="1.1" id="rook"
	 class="svg-piece"
	 xmlns="http://www.w3.org/2000/svg"
	 x="0px" y="0px"
	 viewBox="0 0 200 200"
	 width="200px" height="200px">
<title>rook</title>
<path id="ладья" d="M166.3,27.3c-4.7,36.9-10.2,80.7-14.9,117.6c-10.4,1.8-7.3,16.3-7.1,28.9c-24.2,8.2-63,8.5-88.1,0
	c1-13.6,0.6-29.7-7.6-28.9C43.9,108,38.3,64,33.7,27.3c6.9-1.7,14.4-3.2,22.4-4.4l5.4,30.1c7-0.9,14.3-1.5,21.8-1.9l-1.8-30.7
	c12.5-0.7,25-0.7,37.5,0l-1.8,30.7c7.5,0.4,14.8,1.1,21.8,1.9l5.4-30.1C152.1,24.2,159.5,25.6,166.3,27.3z"/>
</svg>
