<svg version="1.1" id="bishop"
	 class="svg-piece"
	 xmlns="http://www.w3.org/2000/svg"
	 x="0" y="0"
	 viewBox="0 0 200 200"
	 width="200px" height="200px"
	fill="black">
<title>Bishop</title>
<path d="M167.1,120.5c-1.2,31.4-21.8,33.4-23.3,43.9l0,0c0.5,3.7,0.6,7.5,0.4,11.3c-24.7,8.4-63.1,8.5-88.1,0c-0.2-3.6-0.1-7.1,0.3-10.7l0,0c0-1.6-2.2-6.3-5-8.3c-29.9-23.8-19.6-55.5,2-78.4c0,0,20.9,20.1,27.8,27.8c1.8,2,9,7.7,5.7-3.7c-3.9-13.6-14.3-42.3-14.3-42.3C83.7,50.5,96,40.3,94.9,35.5l0,0c-7.6-4.7-4.5-16.5,3.9-17.4c9.8-1.3,14.1,12,6.3,17.2l0,0c-0.1,0.2-1.4,2.6,6.2,10.2C131.3,64.5,167.8,89.6,167.1,120.5z"/>
</svg>
