<svg version="1.1" id="king"
	 class="svg-piece"
	 xmlns="http://www.w3.org/2000/svg"
	 x="0px" y="0px"
	 viewBox="0 0 200 200"
	 width="200px" height="200px"
	 fill="black">
<title>King</title>
<path d="M156.8,120.9c-5.8,35.3-17.2,22.6-12.6,55.5c-24.4,8.3-63.1,8.5-88.1,0c1.2-13.8,1.1-25.1-7.8-36
	c-16.3-31.3,8.5-56.2,40.7-61c-2.3-4.7-0.6-13.4,4.8-16.6c-1.4-4.1-2.3-8.3-2.6-12.6c-20,4.4-18.6-20.2,0.2-15.4
	c3.2-24.3,14.4-22.4,17.3,0c19.4-4.5,18.5,19.9,0.2,15.4c-0.3,4.4-1.2,8.7-2.7,12.8c5,3.8,6.9,10.6,4.5,16.4
	C136.6,83.4,156.3,99.2,156.8,120.9z"/>
</svg>
