<svg version="1.1" id="knight"
	 class="svg-piece"
	 xmlns="http://www.w3.org/2000/svg"
	 x="0px" y="0px"
	 viewBox="0 0 200 200"
	 width="200px" height="200px"
	 fill="white">
<title>Knight</title>
<path id='path' d="M161.5,112c-13.9,35-8.7,35-7.4,62.7c-24.2,8.2-63,8.6-88.1,0c-1.1-14.1,4.3-30.7,13.3-41.5l0,0c11.2-10.8,19.6-25.6,17.8-43.6c-0.7,10.2-29.2,16.8-32.7,35.3l-10.8,0.3c0.1-1.3,0.4-4.4,0.6-6.6c-9.9,15.2-19-8-21.5-17.9C47.7,89.8,61,52.4,64.3,43.1l11.3-6.3l-9.7-10.5C124.7-0.7,187.1,51.5,161.5,112z"/>
</svg>
