<svg version="1.1" id="pawn"
	 class="svg-piece"
	 xmlns="http://www.w3.org/2000/svg"
	 x="0px" y="0px"
	 viewBox="0 0 200 200"
	 width="200px" height="200px"
	 fill="white">
<title>Pawn</title>
<path d="M144.2,173c0,1,0-0.1-0.1,3.5c-24.2,8.2-63,8.5-88.1,0c-1.2-13.1,4.1-30.6,13.2-41.5l0,0c13-12.1,21.8-31.2,16.4-50.8C56.9,81.3,60.9,74,84.1,71.6c-27.7-16.4-14-54.5,15.9-54.4c31.9,0.6,42.4,39,15.9,54.4c25.4,2.7,24.8,10.1-1.6,12.6c-4.9,17.1,1.7,37.5,16.4,50.8l0,0C139.4,145.8,144.1,159.2,144.2,173z"/>
</svg>
