<svg version="1.1" id="queen"
	 class="svg-piece"
	 xmlns="http://www.w3.org/2000/svg"
	 x="0px" y="0px"
	 viewBox="0 0 200 200"
	 width="200px" height="200px"
	 fill="black">
<title>Queen</title>
<path id="queen" d="M182.1,47.1c-0.1,4.5-3.8,8.1-8.3,8c-0.5,0-1-0.1-1.5-0.2c-5.9,25.9-15.4,67.2-21.2,92.6c0,0-8.1,0-8.1,14
	c0,0.1,0,0.3,0.1,0.4c0.9,4.8,1.2,9.6,0.9,14.5c-24.7,8.4-63.1,8.5-88.1,0c-0.2-3.6-0.1-7.2,0.3-10.7c0-0.1,0-0.2,0-0.3
	c0.2-1.2,0.3-2.4,0.2-3.7c0.1-14.3-8.1-14.2-8.1-14.2L27.5,54.9C18,56.9,14,43.5,22.6,39.7c9.7-4,15.3,9.7,7.1,14.4
	c10.5,18.5,24.5,43.3,35,61.8c-0.4-17.2-1.3-59.7-1.7-77.2c-9.6-0.1-10.9-13.3-2.3-15.8c10.5-2.7,13.9,12.4,4.6,15.4
	c5,15.9,17.7,55.8,22.6,71c2.3-16.3,8.6-59.5,11-76.2c-10.1-1.9-8.3-15.8,1.1-16c10.1,0.3,10.6,14.4,1.2,16c2.4,16.8,8.7,60,11,76.2
	c4.9-15.4,17.6-55.3,22.5-71c-9.3-3.3-6.1-16.7,3.5-15.6c10.4,1.7,8.2,16.1-1.3,16c-0.3,13.5-1.7,77.2-1.7,77.2
	c7-12.3,35-61.8,35-61.8C156.5,43,180.2,30.8,182.1,47.1z"/>
</svg>
